<svg id="svg1" width="32" height="16" version="1.1" viewBox="0 0 32 16" xmlns="http://www.w3.org/2000/svg">
<g>
<path id="background" d="M 13.289062,2 C 15.011971,3.518217 15.999382,5.703611 16,7.999999 c -0.0016,2.297004 -0.990484,4.482497 -2.714844,6 H 26 c 3.313708,0 6,-2.686291 6,-6 C 32,4.686291 29.313708,2 26,2 Z" fill="#2c3c55" style="paint-order:stroke fill markers"/>
<circle id="color" transform="scale(-1)" cx="-8" cy="-8" r="7" fill="#e5e5e5" style="paint-order:stroke fill markers"/>
<path id="border" d="m8 0a8 8 0 0 0-8 8 8 8 0 0 0 8 8 8 8 0 0 0 8-8 8 8 0 0 0-8-8zm0 1a7 7 0 0 1 7 7 7 7 0 0 1-7 7 7 7 0 0 1-7-7 7 7 0 0 1 7-7z" style="paint-order:stroke fill markers"/>
</g>
</svg>
