<svg id="svg1" width="32" height="16" version="1.1" viewBox="0 0 32 16" xmlns="http://www.w3.org/2000/svg">
<g>
<path id="border" d="m24 0a8 8 0 0 0-5.285156 2h-12.714844a6 6 0 0 0-6 6 6 6 0 0 0 6 6h12.714844a8 8 0 0 0 5.285156 2 8 8 0 0 0 8-8 8 8 0 0 0-8-8z" fill="#2c3c55" style="paint-order:stroke fill markers"/>
<path id="background" d="M 6 3 L 6 3.0097656 A 4.8754649 5 0 0 0 1.25 8 A 4.8754649 5 0 0 0 6 12.990234 L 6 13 L 17.775391 13 A 8 8 0 0 1 16 8 A 8 8 0 0 1 17.775391 3 L 6 3 z " fill="#a2c5e5" style="paint-order:stroke fill markers"/>
<circle id="color" cx="24" cy="8" r="7" fill="#e5e5e5" style="paint-order:stroke fill markers"/>
</g>
</svg>
