<svg id="svg1" width="32" height="16" version="1.1" viewBox="0 0 32 16" xmlns="http://www.w3.org/2000/svg">
<g id="g1">
<circle id="color" cx="24" cy="8" r="7" fill="#e5e5e5" style="paint-order:stroke fill markers"/>
<path id="background" d="m18.710938 13.992187c-1.722909-1.518217-2.71032-3.703611-2.710938-5.999999 0.0016-2.297004 0.990484-4.482497 2.714844-6h-12.714844c-3.313708 0-6 2.686291-6 6 0 3.313708 2.686292 5.999999 6 5.999999z" fill="#2c3c55" style="paint-order:stroke fill markers"/>
<path id="border" d="m24 16a8 8 0 0 0 8-8 8 8 0 0 0-8-8 8 8 0 0 0-8 8 8 8 0 0 0 8 8zm0-1a7 7 0 0 1-7-7 7 7 0 0 1 7-7 7 7 0 0 1 7 7 7 7 0 0 1-7 7z" style="paint-order:stroke fill markers"/>
</g>
</svg>
