<svg id="svg1" width="38" height="23" version="1.1" viewBox="0 0 38 23" xmlns="http://www.w3.org/2000/svg">
<g id="g1" transform="translate(-35.497286)" stroke-linecap="round" stroke-linejoin="round">
<path id="background" d="m54.497286 3c5.52811 5.8902855 2.882832 13.444372 0 17h11v-0.03516c4.484561-0.264242 7.989198-3.972517 8-8.464844-4.79e-4 -4.4998655-3.507926-8.2196776-8-8.484375v-0.015621h-0.5z" fill="#4783ee" stroke-width="2.61456"/>
<circle id="color" cx="46.997288" cy="11.5" r="10.5" fill="#d1dbf1" fill-opacity=".72124034" stroke-width="1.82551"/>
<path id="border" d="m46.997286 0a11.5 11.5 0 0 0-11.5 11.5 11.5 11.5 0 0 0 11.5 11.5 11.5 11.5 0 0 0 11.5-11.5 11.5 11.5 0 0 0-11.5-11.5zm0 1a10.5 10.5 0 0 1 10.5 10.5 10.5 10.5 0 0 1-10.5 10.5 10.5 10.5 0 0 1-10.5-10.5 10.5 10.5 0 0 1 10.5-10.5z" fill="#80858d" stroke-width="1.99937"/>
</g>
</svg>
