<svg id="svg1" width="38" height="23" version="1.1" viewBox="0 0 38 23" xmlns="http://www.w3.org/2000/svg">
<g id="g1" transform="translate(-35.497286)">
<path id="background" d="m43.261526 3c-4.287843 0-7.76424 3.8055784-7.76424 8.5 0 4.694419 3.476397 8.5 7.76424 8.5h12.23576c-2.460476-2.103236-4.004998-5.131851-4.004998-8.5 0-3.3681484 1.544522-6.3967643 4.004998-8.5zm9.397065 7.199219c-0.063364 0.428723-0.099971 0.862277-0.099971 1.300781a11.196501 10.5 0 0 1 0.09997-1.300781zm-0.09997 1.300781c0 0.438504 0.03661 0.872058 0.09997 1.300781a11.196501 10.5 0 0 1-0.09997-1.300781z" fill="#2c3c55" stroke-width="1.35392" style="paint-order:stroke fill markers"/>
<circle id="color" cx="61.997288" cy="11.5" r="10.5" fill="#e5e5e5" stroke-width="1.5" style="paint-order:stroke fill markers"/>
<path id="border" d="m61.997286 23c6.351275 0 11.5-5.148725 11.5-11.5 0-6.3512746-5.148725-11.5-11.5-11.5s-11.5 5.1487254-11.5 11.5c0 6.351275 5.148725 11.5 11.5 11.5zm0-1c-5.557365-1e-6 -10.5-4.942635-10.5-10.5 0-5.5573649 4.942635-10.499999 10.5-10.5 5.557365 6e-7 10.5 4.9426351 10.5 10.5 0 5.557365-4.942635 10.499999-10.5 10.5z" fill="#3c5173" stroke-width="1.4375" style="paint-order:stroke fill markers"/>
</g>
</svg>
